<svg xmlns="http://www.w3.org/2000/svg" width="22" height="20" fill="none" viewBox="0 0 22 20">
  <path fill="#fff" d="M20.335 11.384a.543.543 0 00-.549.537v4.772c0 .89-.737 1.612-1.646 1.613H2.744c-.91-.001-1.645-.722-1.647-1.613V2.687c.002-.89.738-1.611 1.647-1.612h4.872c.303 0 .548-.24.548-.538A.543.543 0 007.616 0H2.744C1.229.002.002 1.204 0 2.687v14.007c.002 1.483 1.229 2.685 2.744 2.687H18.14c1.515-.002 2.742-1.204 2.744-2.687V11.92a.543.543 0 00-.549-.537z"/>
  <path fill="#fff" d="M21.178.238a.846.846 0 00-1.174-.002L10.043 9.92 6.449 6.115a.846.846 0 00-1.174-.047.795.795 0 00-.048 1.143l4.18 4.424a.84.84 0 00.61.26c.22 0 .43-.084.586-.235L21.177 1.382a.795.795 0 00.001-1.144z"/>
</svg>
